<svg width="18" height="18" viewBox="0 0 86 78" version="1.1" xmlns="http://www.w3.org/2000/svg" xmlns:xlink="http://www.w3.org/1999/xlink">
<title>noun_677561_cc 2</title>
<desc>Created using Figma</desc>
<g id="Canvas" transform="translate(201 431)">
<g id="noun_677561_cc 2">
<g id="Group">
<g id="Vector">
<use xlink:href="#path0_fill" transform="translate(-201 -431)" fill="#000000" fill-opacity="0.5"/>
</g>
</g>
</g>
</g>
<defs>
<path id="path0_fill" d="M 64.5 -2.5293e-05C 75.9612 -2.5293e-05 86 8.80705 86 20.5C 86 26.3149 84.0046 32.1496 79.5625 36.5625L 38.4375 77.4062C 37.7068 78.1746 36.3355 78.1956 35.5816 77.4502C 34.8277 76.7046 34.8335 75.3332 35.5938 74.594L 76.75 33.7187C 80.3821 30.1106 82 25.4098 82 20.4999C 82 11.1032 73.9268 3.99997 64.5 3.99997C 60.0984 4.00497 55.7006 5.80584 52.25 9.24997L 7.34377 54.0937C 5.23319 56.2003 4.00002 58.8669 4.00002 61.4375C 4.00002 64.5603 4.98309 67.6364 7.28127 69.9375C 11.686 74.3477 18.6894 74.3477 23.0938 69.9375C 38.6319 54.3893 54.3805 38.61 67.6563 25.2812C 69.6925 23.6095 69.4524 19.7744 68 18.0938C 66.6847 16.046 62.6725 15.8464 61 18.0628L 20.4375 58.4066C 19.7068 59.1749 18.3355 59.1959 17.5816 58.4506C 16.8277 57.7049 16.8335 56.3335 17.5938 55.5943L 58.1875 15.1877C 62.2679 11.4712 68.8753 12.7932 70.8125 15.2187C 74.2124 18.7377 73.8077 24.2627 70.6563 27.9687C 55.0902 43.5572 39.2379 59.4018 25.9063 72.75C 19.9849 78.6793 10.3592 78.6791 4.4375 72.75C 1.27682 69.5854 -1.38977e-07 65.4052 -1.38977e-07 61.4375C -1.38977e-07 57.6386 1.73508 54.0097 4.5 51.25L 49.4062 6.43747C 53.5674 2.28412 59.0019 0.00663471 64.5 -2.5293e-05L 64.5 -2.5293e-05Z"/>
</defs>
</svg>
