<svg width="38" height="38" viewBox="0 0 86 86" version="1.1" xmlns="http://www.w3.org/2000/svg" xmlns:xlink="http://www.w3.org/1999/xlink">
<title>noun_875591_cc</title>
<desc>Created using Figma</desc>
<g id="Canvas" transform="translate(375 608)">
<g id="noun_875591_cc">
<g id="Group">
<g id="Vector">
<use xlink:href="#path0_fill" transform="translate(-375 -608)" fill="#000000" fill-opacity="0.5"/>
</g>
</g>
</g>
</g>
<defs>
<path id="path0_fill" d="M 43 0.000100008C 19.2636 0.000100008 0 19.2637 0 43.0001C 0 66.7365 19.2636 86.0001 43 86.0001C 66.7364 86.0001 86 66.7365 86 43.0001C 86 21.3434 69.9706 3.38114 49.125 0.40635C 48.9937 0.387862 48.86 0.395425 48.7316 0.428608C 48.6032 0.46179 48.4825 0.519942 48.3766 0.599742C 48.2707 0.679542 48.1815 0.779428 48.1142 0.893694C 48.0469 1.00796 48.0027 1.13437 47.9842 1.2657C 47.9658 1.39704 47.9733 1.53072 48.0065 1.65913C 48.0397 1.78753 48.0979 1.90814 48.1777 2.01406C 48.2575 2.11998 48.3574 2.20914 48.4717 2.27645C 48.586 2.34376 48.7124 2.3879 48.8438 2.40635C 68.7189 5.24266 84 22.3296 84 43.0001C 84 65.6557 65.6555 84.0001 43 84.0001C 20.3445 84.0001 2 65.6557 2 43.0001C 2 20.3445 20.3445 2.0001 43 2.0001C 43.1325 2.00197 43.2641 1.97749 43.387 1.92808C 43.51 1.87867 43.6219 1.8053 43.7163 1.71226C 43.8107 1.61922 43.8856 1.50834 43.9368 1.38609C 43.9879 1.26383 44.0142 1.13263 44.0142 1.0001C 44.0142 0.867575 43.9879 0.736371 43.9368 0.614114C 43.8856 0.491857 43.8107 0.380984 43.7163 0.28794C 43.6219 0.194895 43.51 0.121535 43.387 0.072121C 43.2641 0.0227073 43.1325 -0.00177404 43 0.000100008ZM 42.875 19.9688C 42.6265 20 42.3988 20.1232 42.2368 20.3141C 42.0747 20.5051 41.9903 20.7499 42 21.0001L 42 42.0001L 21 42.0001C 20.9376 41.9942 20.8749 41.9942 20.8125 42.0001C 20.5473 42.025 20.3028 42.1542 20.1329 42.3593C 19.9629 42.5644 19.8814 42.8286 19.9062 43.0938C 19.9311 43.3591 20.0603 43.6035 20.2654 43.7735C 20.4706 43.9435 20.7348 44.025 21 44.0001L 42 44.0001L 42 65.0001C 41.9981 65.1326 42.0226 65.2642 42.072 65.3871C 42.1214 65.5101 42.1948 65.622 42.2878 65.7164C 42.3809 65.8108 42.4918 65.8857 42.614 65.9369C 42.7363 65.988 42.8675 66.0144 43 66.0144C 43.1325 66.0144 43.2637 65.988 43.386 65.9369C 43.5082 65.8857 43.6191 65.8108 43.7122 65.7164C 43.8052 65.622 43.8786 65.5101 43.928 65.3871C 43.9774 65.2642 44.0019 65.1326 44 65.0001L 44 21.0001C 44.0057 20.855 43.9797 20.7103 43.9238 20.5763C 43.8679 20.4422 43.7835 20.3219 43.6765 20.2238C 43.5694 20.1257 43.4422 20.052 43.3038 20.008C 43.1654 19.964 43.0191 19.9506 42.875 19.9688L 42.875 19.9688ZM 48.8125 42.0001C 48.5473 42.025 48.3028 42.1542 48.1329 42.3593C 47.9629 42.5644 47.8814 42.8286 47.9062 43.0938C 47.9311 43.3591 48.0603 43.6035 48.2654 43.7735C 48.4706 43.9435 48.7348 44.025 49 44.0001L 65 44.0001C 65.1325 44.002 65.2641 43.9775 65.387 43.9281C 65.51 43.8787 65.6219 43.8053 65.7163 43.7123C 65.8107 43.6192 65.8856 43.5083 65.9368 43.3861C 65.9879 43.2638 66.0143 43.1326 66.0143 43.0001C 66.0143 42.8676 65.9879 42.7364 65.9368 42.6141C 65.8856 42.4919 65.8107 42.381 65.7163 42.2879C 65.6219 42.1949 65.51 42.1215 65.387 42.0721C 65.2641 42.0227 65.1325 41.9982 65 42.0001L 49 42.0001C 48.9376 41.9942 48.8749 41.9942 48.8125 42.0001L 48.8125 42.0001Z"/>
</defs>
</svg>
